{"title":"Death at a Funeral (2010) 480p BrRip x265 {TheSpider}","uid":14558456,"size":329168408,"categoryP":"video","categoryS":"movies","magnet":"?xt=urn:btih:837d7b51b761e393ce72ccffdc92c67d50eae445&amp;dn=Death+at+a+Funeral+%282010%29+480p+BrRip+x265+%7BTheSpider%7D&amp;tr=udp%3A%2F%2Ftracker.leechers-paradise.org%3A6969&amp;tr=udp%3A%2F%2Fzer0day.ch%3A1337&amp;tr=udp%3A%2F%2Fopen.demonii.com%3A1337&amp;tr=udp%3A%2F%2Ftracker.coppersurfer.tk%3A6969&amp;tr=udp%3A%2F%2Fexodus.desync.com%3A6969","seeders":1,"leechers":0,"uploader":"ripthejacker420","files":1,"time":1462712675,"description":"My KAT username is: TheSpider008\r\nTorrents tagged with: {TheSpider}   are encoded by me =)\r\n===================================================================================\r\n\r\nSeedbox! Enjoy\r\n\r\nI appreciate any and all constructive criticism. i'm trying to get better so don't be afraid to let me know your thoughts.\r\nI do mostly x265 encodes so if you're looking for high quality, low size, 480p x264 encodes, I highly recommend VYTOP2PDL.\r\n\r\nEncoder: TheSpider008\r\nMovie: Death at a Funeral (2010)\r\nContainer: MKV (Matroska)\r\nResolution: 720x300\r\nSize: 314MB\r\nDuration: 1hr 32min\r\nLanguage: English\r\nSubtitles: English (Softcoded)\r\nSource: Death.At.A.Funeral.2010.1080p.BluRay.H264.AAC-RARBG  (Thank You!)\r\n\r\n\r\n*General*\r\n---------------------------------------------\r\nUnique ID                                : 191793594487467550338578954093905313296 (0x904A1A4901F26675B997EDCA2D43FE10)\r\nFormat                                   : Matroska\r\nFormat version                           : Version 4 / Version 2\r\nFile size                                : 314 MiB\r\nDuration                                 : 1h 32mn\r\nOverall bit rate mode                    : Variable\r\nOverall bit rate                         : 475 Kbps\r\nMovie name                               : Death at a Funeral (2010) 480p BrRip x265 {TheSpider}\r\nEncoded date                             : UTC 2016-04-23 17:33:50\r\nWriting application                      : mkvmerge v8.4.0 ('A better way to fly') 64bit\r\nWriting library                          : libebml v1.3.1 + libmatroska v1.4.2\r\n\r\n*Video*\r\n-----------------------------------------------\r\nID                                       : 1\r\nFormat                                   : HEVC\r\nFormat/Info                              : High Efficiency Video Coding\r\nFormat profile                           :   @Main\r\nCodec ID                                 : V_MPEGH/ISO/HEVC\r\nDuration                                 : 1h 32mn\r\nBit rate                                 : 406 Kbps\r\nWidth                                    : 720 pixels\r\nHeight                                   : 300 pixels\r\nDisplay aspect ratio                     : 2.40:1\r\nFrame rate mode                          : Constant\r\nFrame rate                               : 23.976 (24000/1001) fps\r\nOriginal frame rate                      : 23.976 (23976/1000) fps\r\nColor space                              : YUV\r\nChroma subsampling                       : 4:2:0\r\nBit depth                                : 8 bits\r\nBits/(Pixel*Frame)                       : 0.078\r\nStream size                              : 268 MiB (85%)\r\nTitle                                    : Death at a Funeral (2010)\r\nWriting library                          : x265 1.7+497-975352b2c022:[Windows][GCC 5.2.0][64 bit] 8bit+10bit+12bit\r\nEncoding settings                        : wpp / ctu=64 / min-cu-size=8 / max-tu-size=32 / tu-intra-depth=1 / tu-inter-depth=1 / me=3 / subme=3 / merange=57 / rect / no-amp / max-merge=3 / temporal-mvp / no-early-skip / rdpenalty=0 / no-tskip / no-tskip-fast / strong-intra-smoothing / no-lossless / no-cu-lossless / no-constrained-intra / no-fast-intra / open-gop / no-temporal-layers / interlace=0 / keyint=250 / min-keyint=23 / scenecut=40 / rc-lookahead=25 / lookahead-slices=0 / bframes=4 / bframe-bias=0 / b-adapt=2 / ref=3 / limit-refs=0 / weightp / no-weightb / aq-mode=1 / qg-size=32 / aq-strength=1.00 / cbqpoffs=0 / crqpoffs=0 / rd=4 / psy-rd=0.30 / rdoq-level=2 / psy-rdoq=1.00 / signhide / deblock / sao / no-sao-non-deblock / b-pyramid / cutree / rc=crf / crf=19.5 / qcomp=0.60 / qpmin=0 / qpmax=51 / qpstep=4 / ipratio=1.40 / pbratio=1.30\r\nLanguage                                 : English\r\nDefault                                  : Yes\r\nForced                                   : No\r\n\r\n*Audio*\r\n-------------------------------------------------\r\nID                                       : 2\r\nFormat                                   : Vorbis\r\nFormat settings, Floor                   : 1\r\nCodec ID                                 : A_VORBIS\r\nDuration                                 : 1h 32mn\r\nBit rate mode                            : Variable\r\nBit rate                                 : 80.0 Kbps\r\nChannel(s)                               : 2 channels\r\nSampling rate                            : 48.0 KHz\r\nFrame rate                               : 56.669 fps (847 spf)\r\nCompression mode                         : Lossy\r\nStream size                              : 44.5 MiB (14%)\r\nTitle                                    : {TheSpider}\r\nWriting application                      : Lavc56.59.100 libvorbis\r\nWriting library                          : Lavf56.40.101\r\nLanguage                                 : English\r\nDefault                                  : Yes\r\nForced                                   : No\r\n\r\n*Text*\r\n-------------------------------------------------\r\nID                                       : 3\r\nFormat                                   : UTF-8\r\nCodec ID                                 : S_TEXT/UTF8\r\nCodec ID/Info                            : UTF-8 Plain Text\r\nDuration                                 : 1h 28mn\r\nBit rate                                 : 102 bps\r\nCount of elements                        : 1652\r\nStream size                              : 66.5 KiB (0%)\r\nTitle                                    : {TheSpider}\r\nLanguage                                 : English\r\nDefault                                  : No\r\nForced                                   : No","torrent":{"xt":"urn:btih:837d7b51b761e393ce72ccffdc92c67d50eae445","amp;dn":"Death+at+a+Funeral+%282010%29+480p+BrRip+x265+%7BTheSpider%7D","amp;tr":["udp%3A%2F%2Ftracker.leechers-paradise.org%3A6969","udp%3A%2F%2Fzer0day.ch%3A1337","udp%3A%2F%2Fopen.demonii.com%3A1337","udp%3A%2F%2Ftracker.coppersurfer.tk%3A6969","udp%3A%2F%2Fexodus.desync.com%3A6969"],"infoHash":"837d7b51b761e393ce72ccffdc92c67d50eae445","infoHashBuffer":{"type":"Buffer","data":[131,125,123,81,183,97,227,147,206,114,204,255,220,146,198,125,80,234,228,69]},"announce":[],"urlList":[]}}